<?xml version="1.0" encoding="utf-8"?>
<!-- Generator: Adobe Illustrator 21.1.0, SVG Export Plug-In . SVG Version: 6.00 Build 0)  -->
<svg version="1.1" xmlns="http://www.w3.org/2000/svg" xmlns:xlink="http://www.w3.org/1999/xlink" x="0px" y="0px"
	 viewBox="0 0 380.7 382" style="enable-background:new 0 0 380.7 382;" xml:space="preserve">
<style type="text/css">
	.st0{display:none;}
	.st1{display:inline;}
	.st2{fill:#060707;}
	.st3{fill:url(#SVGID_1_);}
	.st4{fill:url(#SVGID_2_);}
	.st5{fill:url(#SVGID_3_);}
	.st6{fill:url(#SVGID_4_);}
	.st7{display:inline;fill:none;}
	.st8{display:inline;fill:#302F2F;}
	.st9{font-family:'Prototype';}
	.st10{font-size:130px;}
	.st11{display:inline;fill:url(#SVGID_5_);}
	.st12{fill:#050606;}
	.st13{display:inline;fill:url(#SVGID_6_);}
	.st14{display:inline;fill:url(#SVGID_7_);}
	.st15{display:inline;fill:url(#SVGID_8_);}
	.st16{fill:url(#SVGID_9_);}
</style>
<g id="Calque_1" class="st0">
	
		<image style="display:inline;overflow:visible;" width="1072" height="1920" xlink:href="8E3DA021.jpg"  transform="matrix(0.8594 0 0 0.8594 -356.8378 -574.6667)">
	</image>
</g>
<g id="Calque_4" class="st0">
	<g class="st1">
		<path class="st2" d="M101.3,151.5c3.5,2.4,6.5,5.3,8.9,8.6c2.4,3.4,4.2,7,5.3,10.9c1.1,3.9,1.7,8,1.6,12.2
			c-0.1,4.2-0.8,8.3-2.2,12.4c-1.8,5.2-4.5,9.9-8.1,14.1c-3.6,4.2-7.9,7.5-12.8,10.1c-4.6,2.5-9.8,4.2-15.6,4.9
			c-0.6,0-1.3,0-1.9,0.1c-0.6,0.1-1.3,0.1-1.9,0.1c0,0.6,0,1.2-0.1,1.6c-0.1,0.4-0.1,1-0.1,1.6c-0.1,1-0.3,2.1-0.6,3.3
			c-0.3,1.2-0.5,2.3-0.8,3.3c-1.1,4.8-3.2,9.2-6.3,13s-7.3,5.9-12.7,6.2c-5.3,0.4-9.7-1.1-13.1-4.4s-5.8-7.3-7.2-12.2
			c-1.5-5.4-2.3-11-2.5-16.7c-0.1-5.7-0.1-11.3,0.2-16.9l1.3-17.1l0.4-8.2c0.1-1-0.5-1.9-1.8-2.6c-1.3-0.7-2.4-1.4-3.1-2.2
			c-2-1.8-3.3-3.8-3.9-6.1c-0.6-2.3-0.6-4.6-0.2-6.8c0.4-2.3,1.4-4.4,2.8-6.4c1.4-2,3.1-3.6,5.1-5c1.4-0.8,2.7-1.5,4-2.1
			c1.3-0.6,2.6-1.1,4-1.3c0.6-1,1.3-2,2.1-2.9c0.8-0.9,1.6-1.7,2.5-2.5c3.3-2.8,7.2-4.2,11.8-4.2c2.2,0,4.3,0.4,6.4,1
			c2.1,0.7,4,1.8,5.6,3.3l2.5,2.9c0.6,0,1.2,0,1.7,0c0.5,0,1.1,0.1,1.7,0.4c1.1,0,2.3,0,3.4,0.1c1.1,0.1,2.3,0.2,3.4,0.3
			c3.4,0.5,6.9,1.3,10.4,2.4C95,147.9,98.3,149.5,101.3,151.5z"/>
		<linearGradient id="SVGID_1_" gradientUnits="userSpaceOnUse" x1="31.3924" y1="160.2137" x2="88.4238" y2="217.2451">
			<stop  offset="0" style="stop-color:#312061"/>
			<stop  offset="7.135946e-03" style="stop-color:#3A2468"/>
			<stop  offset="2.755998e-02" style="stop-color:#4C2D77"/>
			<stop  offset="5.166861e-02" style="stop-color:#5A3584"/>
			<stop  offset="8.149566e-02" style="stop-color:#643B8E"/>
			<stop  offset="0.1233" style="stop-color:#6A3E96"/>
			<stop  offset="0.2395" style="stop-color:#6C4099"/>
			<stop  offset="0.864" style="stop-color:#D04E9C"/>
			<stop  offset="0.9174" style="stop-color:#D0509D"/>
			<stop  offset="0.9367" style="stop-color:#D156A0"/>
			<stop  offset="0.9504" style="stop-color:#D361A5"/>
			<stop  offset="0.9615" style="stop-color:#D66FAC"/>
			<stop  offset="0.971" style="stop-color:#DA80B5"/>
			<stop  offset="0.9794" style="stop-color:#E095C0"/>
			<stop  offset="0.987" style="stop-color:#E6AECF"/>
			<stop  offset="0.9937" style="stop-color:#EFCCE1"/>
			<stop  offset="1" style="stop-color:#FCEFF5"/>
		</linearGradient>
		<path class="st3" d="M108.7,173.7c-1.1-4.8-3.5-8.9-6.9-12.2c-3.5-3.3-7.5-5.8-12.1-7.4c-3.2-1.1-6.4-1.9-9.6-2.3
			c-3.2-0.4-6.5-0.6-9.8-0.6c-0.6,0-1.3,0-2,0.1c-0.7,0.1-1.4,0.1-2,0.1l-0.8-1.9c-0.3-0.6-0.6-1.2-1-1.7c-0.5-0.5-0.8-1-1-1.3
			c-1-1-2.1-1.7-3.3-2c-1.2-0.3-2.4-0.5-3.7-0.5c-4.4,0-7.8,2.2-10.3,6.5c-0.6,1-1.1,1.6-1.3,1.8c-0.3,0.2-1,0.4-2.1,0.7l-3.6,1.1
			c-2.2,0.8-4,2.1-5.7,4c-1.4,1.6-2.1,3.3-2,4.8c0.1,1.6,0.5,3,1.4,4.2c0.9,1.2,2.1,2.2,3.6,3c1.5,0.8,3.2,1.1,4.9,1.1
			c-0.6,6.6-1.2,13.2-1.6,19.8c-0.5,6.7-0.7,13.3-0.9,20c-0.1,4.8,0,10,0.3,15.5c0.3,5.5,1.7,10.3,4.3,14.3c1.1,1.8,2.5,3.1,4.1,4
			c1.6,0.9,3.2,1.4,4.9,1.5c1.7,0.1,3.4-0.2,5.1-1c1.7-0.8,3.1-1.9,4.3-3.4c2.7-3.4,4.3-7.4,4.8-12.1c0.6-4.6,0.7-9,0.5-13.2
			c6.1,0.9,11.9,0.3,17.6-1.7c5.6-2,10.5-5,14.6-9c4.1-4,7.1-8.8,8.9-14.4C110.3,186.1,110.4,180.1,108.7,173.7z M79.8,194.5
			c-0.2,2-0.9,3.8-2.2,5.5c-1.3,1.7-2.9,2.6-4.9,2.6c-2.5,0-4.3-0.9-5.2-2.6c-1-1.7-1.3-3.5-1-5.5c0.3-2,1.2-3.8,2.6-5.5
			c1.4-1.7,3.2-2.6,5.3-2.6c2.2,0,3.6,0.8,4.5,2.6C79.6,190.7,80,192.6,79.8,194.5z"/>
		<path class="st2" d="M196.3,168.1c-1.5,2.5-3.6,4.6-6.2,6.1c-2.6,1.5-5.3,2.7-8.1,3.4c3.8,1.8,6.6,4.2,8.4,7.3
			c1.8,3.1,2.6,6.3,2.5,9.7c-0.1,3.4-1.1,6.6-3,9.8c-1.9,3.2-4.6,5.6-8.2,7.2c4.1,1,7.5,2.9,10.3,5.8c2.8,2.9,4.4,6.4,4.8,10.7
			c0.5,4.1,0,7.5-1.4,10.5c-1.5,2.9-3.5,5.4-6.2,7.3c-2.7,2-5.8,3.5-9.3,4.6c-3.5,1.1-7.2,1.9-10.9,2.4c-3.7,0.5-7.4,0.8-11,0.9
			c-3.6,0.1-6.8,0-9.6-0.3c-4.7-0.3-9.4-1-14.1-2.2c-4.7-1.2-8.7-3.6-12.2-7.1c-3.5-3.7-5.9-8.1-6.9-13.2
			c-1.1-5.1-1.6-10.2-1.6-15.3c0-5.3,0-10.6,0.1-15.9c0.1-5.3,0.4-10.5,1-15.9c0.1-1,0.3-2,0.4-3c0.1-1,0.3-2,0.6-3l1.1-3.6
			c0.3-0.9,0.3-1.4,0-1.5c-0.3-0.1-0.7-0.4-1.3-1c-3.7-3.3-5.5-7.5-5.5-12.5c0-2.7,0.5-5.1,1.6-7.2c1.1-2.2,2.5-4,4.2-5.5
			s3.7-2.8,6-3.8c2.3-1,4.6-1.8,6.8-2.5c5.2-1.5,10.5-2.5,16-3c5.4-0.5,10.9-0.8,16.3-0.8c3,0,6.3,0.2,9.7,0.5
			c3.4,0.3,6.7,0.9,10,1.9c3.2,0.9,6.2,2.3,8.9,4.1c2.7,1.8,5,4.1,6.7,7c1.8,2.8,2.7,5.8,2.7,9.1C198.8,162.3,198,165.3,196.3,168.1
			z"/>
		<linearGradient id="SVGID_2_" gradientUnits="userSpaceOnUse" x1="117.82" y1="155.0633" x2="193.4558" y2="230.6992">
			<stop  offset="0" style="stop-color:#312061"/>
			<stop  offset="7.135946e-03" style="stop-color:#3A2468"/>
			<stop  offset="2.755998e-02" style="stop-color:#4C2D77"/>
			<stop  offset="5.166861e-02" style="stop-color:#5A3584"/>
			<stop  offset="8.149566e-02" style="stop-color:#643B8E"/>
			<stop  offset="0.1233" style="stop-color:#6A3E96"/>
			<stop  offset="0.2395" style="stop-color:#6C4099"/>
			<stop  offset="0.864" style="stop-color:#D04E9C"/>
			<stop  offset="0.9174" style="stop-color:#D0509D"/>
			<stop  offset="0.9367" style="stop-color:#D156A0"/>
			<stop  offset="0.9504" style="stop-color:#D361A5"/>
			<stop  offset="0.9615" style="stop-color:#D66FAC"/>
			<stop  offset="0.971" style="stop-color:#DA80B5"/>
			<stop  offset="0.9794" style="stop-color:#E095C0"/>
			<stop  offset="0.987" style="stop-color:#E6AECF"/>
			<stop  offset="0.9937" style="stop-color:#EFCCE1"/>
			<stop  offset="1" style="stop-color:#FCEFF5"/>
		</linearGradient>
		<path class="st4" d="M161.8,172.4c-4.7,0.2-9.3,0.3-13.7,0.5c0.4,0.8,0.8,1.5,1.3,2.3c0.5,0.8,0.9,1.6,1.1,2.5
			c0.3,0.8,0.4,1.6,0.4,2.5c0.1,1.1,0.5,1.7,1.2,1.5c0.7-0.1,1.6-0.2,2.6-0.2h6.2c2.1,0,4.1,0.1,6.2,0.4c1.6,0.1,3.5,0.3,5.5,0.7
			c2,0.3,4,0.9,5.8,1.6c1.8,0.8,3.4,1.8,4.8,3.1c1.3,1.3,2.1,3,2.4,5c0.4,2.3,0.2,4.3-0.6,6c-0.8,1.7-1.9,3.2-3.3,4.4
			c-1.5,1.2-3.1,2.2-5,2.9c-1.9,0.7-3.9,1.2-5.9,1.6c-2.3,0.4-4.6,0.6-6.9,0.7c-2.3,0.1-4.7,0.1-6.9,0.1h-3.6
			c-0.9,0-1.8-0.1-2.7-0.3c-0.9-0.2-1.4,0.2-1.5,1.2c-0.1,1.8-0.2,3.6-0.3,5.3c-0.1,1.8,0,3.5,0.1,5.3c1.6-0.1,3.9-0.3,6.8-0.7
			c2.8-0.3,5.9-0.5,9-0.7c3.2-0.1,6.4-0.1,9.6,0.1c3.2,0.2,6,0.8,8.5,1.8c2.4,1,4.3,2.5,5.6,4.5c1.3,2,1.7,4.7,1,8.1
			c-0.4,1.8-1.2,3.3-2.4,4.7c-1.2,1.3-2.6,2.5-4.1,3.4c-1.5,1-3.1,1.8-4.8,2.4s-3.3,1.1-4.8,1.5c-4.4,1-9,1.6-13.7,1.8
			c-4.7,0.2-9.3,0-13.9-0.5c-3.7-0.4-7.3-1.2-10.9-2.4c-3.6-1.2-6.5-3.4-8.6-6.6c-2.3-2.9-3.7-6.3-4.3-10.2
			c-0.6-3.9-0.9-7.6-0.9-11.3c0-4.9,0-9.9,0.1-14.8c0.1-4.9,0.3-9.8,0.8-14.6c0.4-2.9,1-5.8,1.7-8.5s2.1-5.5,4-8
			c-2.5-0.6-4.9-1.8-7-3.4c-2.2-1.6-3.2-3.9-3-6.8c0-2.5,0.7-4.5,2.2-6c1.5-1.5,3.1-2.7,5-3.7c5.3-2.5,11.2-4.1,17.7-4.8
			s12.6-1,18.4-1c2.4,0,5.6,0.2,9.5,0.7c3.9,0.4,7.6,1.3,11,2.7s6.2,3.2,8.3,5.7c2.1,2.5,2.5,5.7,1.2,9.8c-0.5,1.5-1.3,2.8-2.5,3.8
			c-1.1,1-2.4,1.8-3.9,2.5c-1.5,0.6-3,1.1-4.6,1.5c-1.6,0.4-3.1,0.6-4.5,0.8C171,171.8,166.4,172.2,161.8,172.4z"/>
		<path class="st2" d="M268.5,150.8c3.5,2.4,6.5,5.3,8.9,8.6c2.4,3.4,4.2,7,5.3,10.9c1.1,3.9,1.7,8,1.6,12.2
			c-0.1,4.2-0.8,8.3-2.2,12.4c-1.8,5.2-4.5,9.9-8.1,14.1c-3.6,4.2-7.9,7.5-12.8,10.1c-4.6,2.5-9.8,4.2-15.6,4.9
			c-0.6,0-1.3,0-1.9,0.1c-0.6,0.1-1.3,0.1-1.9,0.1c0,0.6,0,1.2-0.1,1.6c-0.1,0.4-0.1,1-0.1,1.6c-0.1,1-0.3,2.1-0.6,3.3
			c-0.3,1.2-0.5,2.3-0.8,3.3c-1.1,4.8-3.2,9.2-6.3,13s-7.3,5.9-12.7,6.2c-5.3,0.4-9.7-1.1-13.1-4.4s-5.8-7.3-7.2-12.2
			c-1.5-5.4-2.3-11-2.5-16.7c-0.1-5.7-0.1-11.3,0.2-16.9l1.3-17.1l0.4-8.2c0.1-1-0.5-1.9-1.8-2.6c-1.3-0.7-2.4-1.4-3.1-2.2
			c-2-1.8-3.3-3.8-3.9-6.1c-0.6-2.3-0.6-4.6-0.2-6.8c0.4-2.3,1.4-4.4,2.8-6.4c1.4-2,3.1-3.6,5.1-5c1.4-0.8,2.7-1.5,4-2.1
			c1.3-0.6,2.6-1.1,4-1.3c0.6-1,1.3-2,2.1-2.9c0.8-0.9,1.6-1.7,2.5-2.5c3.3-2.8,7.2-4.2,11.8-4.2c2.2,0,4.3,0.4,6.4,1
			c2.1,0.7,4,1.8,5.6,3.3l2.5,2.9c0.6,0,1.2,0,1.7,0c0.5,0,1.1,0.1,1.7,0.4c1.1,0,2.3,0,3.4,0.1c1.1,0.1,2.3,0.2,3.4,0.3
			c3.4,0.5,6.9,1.3,10.4,2.4C262.2,147.3,265.5,148.8,268.5,150.8z"/>
		<linearGradient id="SVGID_3_" gradientUnits="userSpaceOnUse" x1="198.5924" y1="159.5437" x2="255.6238" y2="216.5751">
			<stop  offset="0" style="stop-color:#312061"/>
			<stop  offset="7.135946e-03" style="stop-color:#3A2468"/>
			<stop  offset="2.755998e-02" style="stop-color:#4C2D77"/>
			<stop  offset="5.166861e-02" style="stop-color:#5A3584"/>
			<stop  offset="8.149566e-02" style="stop-color:#643B8E"/>
			<stop  offset="0.1233" style="stop-color:#6A3E96"/>
			<stop  offset="0.2395" style="stop-color:#6C4099"/>
			<stop  offset="0.864" style="stop-color:#D04E9C"/>
			<stop  offset="0.9174" style="stop-color:#D0509D"/>
			<stop  offset="0.9367" style="stop-color:#D156A0"/>
			<stop  offset="0.9504" style="stop-color:#D361A5"/>
			<stop  offset="0.9615" style="stop-color:#D66FAC"/>
			<stop  offset="0.971" style="stop-color:#DA80B5"/>
			<stop  offset="0.9794" style="stop-color:#E095C0"/>
			<stop  offset="0.987" style="stop-color:#E6AECF"/>
			<stop  offset="0.9937" style="stop-color:#EFCCE1"/>
			<stop  offset="1" style="stop-color:#FCEFF5"/>
		</linearGradient>
		<path class="st5" d="M275.9,173.1c-1.1-4.8-3.5-8.9-6.9-12.2c-3.5-3.3-7.5-5.8-12.1-7.4c-3.2-1.1-6.4-1.9-9.6-2.3
			c-3.2-0.4-6.5-0.6-9.8-0.6c-0.6,0-1.3,0-2,0.1c-0.7,0.1-1.4,0.1-2,0.1l-0.8-1.9c-0.3-0.6-0.6-1.2-1-1.7c-0.5-0.5-0.8-0.9-1.1-1.3
			c-1-1-2.1-1.7-3.3-2c-1.2-0.3-2.4-0.5-3.7-0.5c-4.4,0-7.8,2.2-10.3,6.5c-0.6,1-1.1,1.6-1.3,1.8s-0.9,0.4-2.1,0.7l-3.6,1.1
			c-2.2,0.8-4.1,2.1-5.7,4c-1.4,1.7-2.1,3.3-2,4.8c0.1,1.6,0.5,3,1.4,4.2c0.9,1.2,2.1,2.2,3.6,3s3.2,1.1,4.9,1.1
			c-0.6,6.6-1.2,13.2-1.6,19.9c-0.5,6.6-0.7,13.3-0.9,20c-0.1,4.8,0,10,0.3,15.5c0.3,5.5,1.7,10.3,4.3,14.4c1.1,1.8,2.5,3.1,4.1,4
			c1.6,0.9,3.2,1.4,4.9,1.5c1.7,0.1,3.4-0.2,5.1-1s3.1-1.9,4.3-3.4c2.7-3.4,4.3-7.4,4.8-12.1c0.6-4.6,0.7-9,0.5-13.2
			c6.1,0.9,11.9,0.3,17.6-1.7c5.6-2,10.5-5,14.6-9c4.1-4,7.1-8.8,8.9-14.4C277.5,185.4,277.6,179.4,275.9,173.1z M247,193.9
			c-0.2,2-0.9,3.8-2.2,5.5c-1.3,1.7-2.9,2.6-4.9,2.6c-2.5,0-4.3-0.9-5.2-2.6s-1.3-3.5-1-5.5c0.3-2,1.2-3.8,2.6-5.5
			c1.4-1.7,3.2-2.6,5.3-2.6c2.2,0,3.6,0.9,4.5,2.6C246.8,190.1,247.2,191.9,247,193.9z"/>
		<path class="st2" d="M353.3,157.5c1.3,2.9,2.2,6.1,2.7,9.5c0.5,3.4,0.4,6.7-0.2,10c-0.6,3.2-1.9,6.2-3.7,8.8
			c-1.8,2.7-4.4,4.7-7.7,6.1c2.8,2.7,5,5.7,6.6,9.2c1.6,3.5,2.6,7.1,3,10.8c0.4,3.7,0.3,7.5-0.3,11.3c-0.6,3.8-1.8,7.4-3.4,10.8
			c-3.2,6.6-8,11.6-14.3,14.9c-6.4,3.4-13.2,4.9-20.4,4.7c-3.5-0.1-7.1-0.7-10.5-1.6c-3.5-1-6.8-2.3-10-4c-3.2-1.7-6-3.8-8.6-6.4
			c-2.5-2.5-4.6-5.4-6.1-8.7c-1.5-2.9-2.5-6.1-2.9-9.7c-0.4-3.5-0.3-7.1,0.3-10.5c0.6-3.5,1.8-6.7,3.5-9.7c1.7-3,4.1-5.4,7.1-7.3
			c-2.9-2.4-5.1-5.3-6.7-8.5c-1.5-3.3-2.5-6.7-2.8-10.4s-0.2-7.2,0.6-10.9c0.8-3.7,2-7.1,3.6-10.3c3.4-6.1,8.2-10.7,14.4-13.9
			c6.2-3.2,12.7-4.8,19.6-4.8c3.5,0,7.1,0.4,10.7,1.3c3.6,0.9,7,2.2,10.3,3.9c3.2,1.7,6.2,3.8,8.8,6.4
			C349.5,151.1,351.6,154.1,353.3,157.5z"/>
		<linearGradient id="SVGID_4_" gradientUnits="userSpaceOnUse" x1="284.2888" y1="162.9433" x2="348.6856" y2="227.34">
			<stop  offset="0" style="stop-color:#312061"/>
			<stop  offset="7.135946e-03" style="stop-color:#3A2468"/>
			<stop  offset="2.755998e-02" style="stop-color:#4C2D77"/>
			<stop  offset="5.166861e-02" style="stop-color:#5A3584"/>
			<stop  offset="8.149566e-02" style="stop-color:#643B8E"/>
			<stop  offset="0.1233" style="stop-color:#6A3E96"/>
			<stop  offset="0.2395" style="stop-color:#6C4099"/>
			<stop  offset="0.864" style="stop-color:#D04E9C"/>
			<stop  offset="0.9174" style="stop-color:#D0509D"/>
			<stop  offset="0.9367" style="stop-color:#D156A0"/>
			<stop  offset="0.9504" style="stop-color:#D361A5"/>
			<stop  offset="0.9615" style="stop-color:#D66FAC"/>
			<stop  offset="0.971" style="stop-color:#DA80B5"/>
			<stop  offset="0.9794" style="stop-color:#E095C0"/>
			<stop  offset="0.987" style="stop-color:#E6AECF"/>
			<stop  offset="0.9937" style="stop-color:#EFCCE1"/>
			<stop  offset="1" style="stop-color:#FCEFF5"/>
		</linearGradient>
		<path class="st6" d="M321.5,167.8c0.3-1.1,0-2.1-1-2.9c-1.3-1.1-2.7-1.5-4.4-1.1c-1.7,0.5-3,1.3-4,2.6c-0.9,1.4-1.4,2.9-1.5,4.7
			s0,3.4,0.4,5c0.6,2.2,1.8,4,3.6,5.5s3.5,2.9,5.3,4c2.3,1.4,4.6,2.7,7,4c2.4,1.3,4.7,2.6,6.9,4c2.2,1.4,4.3,3,6.2,4.8
			c1.9,1.8,3.4,4,4.6,6.6c1.6,3.7,2.4,7.5,2.4,11.6c-0.1,4-0.9,7.9-2.4,11.6c-1.5,3.7-3.7,6.9-6.5,9.8c-2.8,2.8-6.1,5-9.9,6.4
			s-7.9,2-12.3,1.9c-4.4-0.1-8.6-1-12.6-2.5c-4-1.5-7.6-3.7-10.7-6.6c-3.2-2.8-5.4-6.4-6.6-10.5c-0.6-1.9-1-4-1.2-6.2
			c-0.2-2.2-0.1-4.4,0.4-6.7c0.4-2.2,1.2-4.3,2.2-6.2c1-1.9,2.3-3.5,4-4.8c1.5-1.1,3.2-1.9,4.9-2.2c1.8-0.3,3.5-0.3,5.3,0.1
			c1.8,0.4,3.4,1.1,4.8,2.2c1.5,1.1,2.6,2.4,3.3,4.1c0.5,1,0.8,2.1,0.8,3.1v3.2c0,1.1,0,2.2,0.1,3.2c0.1,1.1,0.4,2.1,1,3.1
			c0.9,1.5,2.2,2.5,3.9,2.9c1.7,0.5,3.3,0.1,4.7-1c1.4-1,2.3-2.3,2.7-3.9c0.4-1.6,0.4-3.2,0-4.9s-1-3.3-1.9-4.8
			c-0.9-1.5-1.8-2.8-2.9-3.8c-2.3-2.3-5-4.1-8.2-5.5c-3.2-1.4-6.3-2.9-9.4-4.4c-3.1-1.5-5.9-3.3-8.4-5.4c-2.5-2.1-4.2-5-5.2-8.6
			c-1-4.3-1-8.9,0.2-13.8c1.1-4.9,3.2-9,6.3-12.4c2.9-3.3,6.5-5.7,10.7-7.3c4.2-1.6,8.6-2.4,13-2.4c4.3,0,8.6,0.8,12.7,2.3
			c4.2,1.5,7.8,3.7,10.9,6.6c3.1,2.8,5.4,6.2,6.9,10.2s1.7,8.2,0.6,12.9c-0.5,2.2-1.4,4-2.7,5.5c-1.3,1.5-2.8,2.7-4.5,3.4
			c-1.7,0.8-3.6,1.1-5.7,1c-2.1-0.1-4.2-0.5-6.2-1.2c-1.8-0.6-3.5-1.6-5.2-3c-1.7-1.4-2.9-3.1-3.5-5.1c-0.6-2.1-0.6-4.1,0.2-5.9
			C320.8,170,321.1,168.9,321.5,167.8z"/>
	</g>
</g>
<g id="Calque_5" class="st0">
	<rect x="41.7" y="148" class="st7" width="382.3" height="120.2"/>
	<text transform="matrix(1 0 0 1 41.6738 241.2092)" class="st8 st9 st10">PEPS</text>
</g>
<g id="Calque_2">
	<g class="st0">
		<linearGradient id="SVGID_5_" gradientUnits="userSpaceOnUse" x1="222.7737" y1="95.2238" x2="312.9105" y2="185.3606">
			<stop  offset="0" style="stop-color:#312061"/>
			<stop  offset="7.135946e-03" style="stop-color:#3A2468"/>
			<stop  offset="2.755998e-02" style="stop-color:#4C2D77"/>
			<stop  offset="5.166861e-02" style="stop-color:#5A3584"/>
			<stop  offset="8.149566e-02" style="stop-color:#643B8E"/>
			<stop  offset="0.1233" style="stop-color:#6A3E96"/>
			<stop  offset="0.2395" style="stop-color:#6C4099"/>
			<stop  offset="0.864" style="stop-color:#D04E9C"/>
			<stop  offset="0.9174" style="stop-color:#D0509D"/>
			<stop  offset="0.9367" style="stop-color:#D156A0"/>
			<stop  offset="0.9504" style="stop-color:#D361A5"/>
			<stop  offset="0.9615" style="stop-color:#D66FAC"/>
			<stop  offset="0.971" style="stop-color:#DA80B5"/>
			<stop  offset="0.9794" style="stop-color:#E095C0"/>
			<stop  offset="0.987" style="stop-color:#E6AECF"/>
			<stop  offset="0.9937" style="stop-color:#EFCCE1"/>
			<stop  offset="1" style="stop-color:#FCEFF5"/>
		</linearGradient>
		<path class="st11" d="M240.5,214.9c6.2-4.1,12.4-8.2,18.5-12.3c7-4.6,14.5-10,16.1-18.2c0.6-3.1,0.2-6.6-2.1-8.8
			c-2.3-2.2-5.8-2.4-9-2.6c-16.9-0.7-35.3-13.7-41.1-30.4c-4.5-13,0.1-27.2,4.7-40.2c2.6-7.5,5.3-15.1,10-21.5
			c8-11.2,26.2-15.5,38.9-19.4c7.4-2.3,15.9-2.6,22.8,1c6.9,3.6,11.9,11.6,10.3,19.2c-3.2,15.7-21.7,16.5-31.7,26.1
			c-5.6,5.3-9.4,13.1-8,20.7c2.4,12.8,14.8,10.6,23.7,15.5c8.8,4.9,14.4,15,15,24.9c0.7,12.2-4.9,24.2-12.9,33.5
			c-8,9.3-18.2,16.4-28.3,23.4c-4.9,3.4-9.7,6.7-14.6,10.1"/>
		<g class="st1">
			<path class="st12" d="M241.7,217c7.8-5.2,15.9-10.1,23.5-15.7c5.3-4,10.6-8.9,12.2-15.6c1.4-5.6-0.2-11.7-5.9-14
				c-3-1.2-6.3-1-9.4-1.3c-4.4-0.4-8.7-1.7-12.7-3.6c-15.6-7.2-27.1-22.1-25.5-39.8c0.9-9.6,4.4-18.9,7.7-27.9
				c3-8.2,6.5-16.9,13.7-22.3c6.1-4.6,13.5-7.2,20.7-9.5c7.4-2.4,15.2-5.5,23.1-5c9.5,0.5,20.1,8,18.3,18.7
				c-1.2,6.9-6.8,11-12.7,14.1c-11.3,6-23.7,11.2-26.9,25.1c-1.3,5.9-0.4,12.9,4.1,17.3c3.8,3.8,9.3,4.8,14.3,6.2
				c21,6,23.9,29.9,14.6,47c-10.5,19.3-31.6,30.9-49.1,43c-2.6,1.8-0.1,6.2,2.5,4.3c15.9-11,33.9-21.4,45.8-37.1
				c10-13.2,15.2-31.1,7.1-46.5c-3.2-6.1-8.4-11.3-14.8-14c-5.5-2.3-13.6-2.4-17.6-7.3c-6.6-8.1,0.1-20.2,7.1-25.5
				c5.3-4,11.7-6.1,17.4-9.4c11.4-6.6,17.9-19.8,9.1-31.5c-10.8-14.5-29.3-8.9-43.6-4.3c-7.2,2.3-14.5,4.9-20.8,9.2
				c-6.4,4.4-10.5,10.5-13.7,17.5c-7.1,15.8-15.5,36.8-9.5,54.1c5.5,15.9,21.1,28.5,37.5,31.5c3.8,0.7,10.3-0.3,13.2,2.5
				c4.9,4.7-1,12.9-4.5,16.2c-7.9,7.6-18.5,13.1-27.6,19.2C236.5,214.5,239,218.8,241.7,217L241.7,217z"/>
		</g>
	</g>
	<g class="st0">
		<linearGradient id="SVGID_6_" gradientUnits="userSpaceOnUse" x1="180.4524" y1="112.2876" x2="280.1622" y2="211.9974">
			<stop  offset="0" style="stop-color:#312061"/>
			<stop  offset="7.135946e-03" style="stop-color:#3A2468"/>
			<stop  offset="2.755998e-02" style="stop-color:#4C2D77"/>
			<stop  offset="5.166861e-02" style="stop-color:#5A3584"/>
			<stop  offset="8.149566e-02" style="stop-color:#643B8E"/>
			<stop  offset="0.1233" style="stop-color:#6A3E96"/>
			<stop  offset="0.2395" style="stop-color:#6C4099"/>
			<stop  offset="0.864" style="stop-color:#D04E9C"/>
			<stop  offset="0.9174" style="stop-color:#D0509D"/>
			<stop  offset="0.9367" style="stop-color:#D156A0"/>
			<stop  offset="0.9504" style="stop-color:#D361A5"/>
			<stop  offset="0.9615" style="stop-color:#D66FAC"/>
			<stop  offset="0.971" style="stop-color:#DA80B5"/>
			<stop  offset="0.9794" style="stop-color:#E095C0"/>
			<stop  offset="0.987" style="stop-color:#E6AECF"/>
			<stop  offset="0.9937" style="stop-color:#EFCCE1"/>
			<stop  offset="1" style="stop-color:#FCEFF5"/>
		</linearGradient>
		<path class="st13" d="M274,80.6c-10.7-5.7-23.6-5.2-35.4-2.6c-27.1,6.1-51.6,22.9-67,46l13.5,46c9.3,34,18.6,67.9,27.9,101.9
			c9.5-7.3,18.9-14.5,28.4-21.8c3.8-2.9,8-6.4,8.6-11.1c0.5-3.8-1.4-7.5-3.2-11c-4.1-8-7.7-16.3-8.9-25.2
			c-1.2-8.9,0.3-18.4,5.6-25.6c5.6-7.6,14.6-11.7,22.4-16.9c13.3-9,24.1-22.7,26.6-38.5S288.2,88.2,274,80.6z M255.9,132.4
			c-7.2,9.2-17.8,15.1-28,20.7l-0.7-3.6c-1.3-8.1-2.6-16.3-1.3-24.3c1.2-8.1,5.4-16.1,12.6-19.9c7.2-3.8,17.5-2,21.5,5.1
			C264,117.3,260.8,126.2,255.9,132.4z"/>
		<g class="st1">
			<path class="st12" d="M275.3,78.4c-18.8-9.5-41.7-3.5-59.8,4.9c-9.5,4.4-18.4,10.2-26.3,17.1c-3.5,3-6.8,6.3-9.9,9.7
				c-1.7,1.9-3.4,3.9-4.9,5.9c-1.4,1.8-4.2,4.6-4.9,6.8c-0.9,2.6,1,6.2,1.7,8.8c1.8,6,3.5,12.1,5.3,18.1c3.4,11.5,6.7,23,9.8,34.5
				c8.1,29.5,16.1,58.9,24.2,88.4c0.4,1.4,2.4,2.5,3.7,1.5c8.2-6.2,16.3-12.5,24.5-18.7c5.4-4.1,12.5-8.4,13.7-15.7
				c1.3-8.1-5.6-16.6-8.4-23.7c-3.3-8.7-5.2-18.2-2.9-27.4c4.3-17.4,23.7-22.4,35.5-33.5c10.5-9.9,18.4-23.4,19-38
				C296.2,101.6,288.8,86.1,275.3,78.4c-2.8-1.6-5.3,2.7-2.5,4.3c12.3,6.9,18.6,21.1,17.7,34.9c-0.9,14.9-10.2,28.2-21.5,37.3
				c-10.8,8.7-25.2,13.4-31.1,27.1c-6,14-1.9,29.3,4.3,42.5c2.1,4.4,6.4,10.2,5,15.3c-1.3,4.7-6.7,7.9-10.3,10.7
				c-8.4,6.5-16.8,12.9-25.2,19.3c1.2,0.5,2.4,1,3.7,1.5c-10.3-37.7-20.1-75.5-31.1-113c-3.1-10.6-6.2-21.2-9.3-31.8
				c-0.2-0.7-1-2.3-0.9-3c-0.3,1.6,2.3-1.9,2.3-2c1.7-2.3,3.5-4.6,5.4-6.7c6.6-7.6,14.3-14.2,22.7-19.7c18.5-12,46.9-23.1,68.2-12.4
				C275.6,84.2,278.2,79.9,275.3,78.4z"/>
			<path class="st12" d="M254.1,130.6c-7.4,9-17.4,14.7-27.5,20.3c1.2,0.5,2.4,1,3.7,1.5c-2.5-13.5-5.8-31.4,5.4-42.1
				c5.3-5,14.6-6.7,20.2-1.2c6.5,6.3,2.3,16-2.3,22c-1.9,2.6,2.4,5.1,4.3,2.5c5.4-7.2,9.1-17.8,3.3-25.9c-4.9-6.8-14.8-8.6-22.3-5.5
				c-20,8.3-16.7,34.6-13.6,51.5c0.3,1.6,2.4,2.2,3.7,1.5c10.4-5.8,20.9-11.7,28.5-21.1C259.7,131.7,256.2,128.1,254.1,130.6z"/>
		</g>
	</g>
	<g class="st0">
		<linearGradient id="SVGID_7_" gradientUnits="userSpaceOnUse" x1="93.1601" y1="168.4404" x2="200.0773" y2="275.3575">
			<stop  offset="0" style="stop-color:#312061"/>
			<stop  offset="7.135946e-03" style="stop-color:#3A2468"/>
			<stop  offset="2.755998e-02" style="stop-color:#4C2D77"/>
			<stop  offset="5.166861e-02" style="stop-color:#5A3584"/>
			<stop  offset="8.149566e-02" style="stop-color:#643B8E"/>
			<stop  offset="0.1233" style="stop-color:#6A3E96"/>
			<stop  offset="0.2395" style="stop-color:#6C4099"/>
			<stop  offset="0.864" style="stop-color:#D04E9C"/>
			<stop  offset="0.9174" style="stop-color:#D0509D"/>
			<stop  offset="0.9367" style="stop-color:#D156A0"/>
			<stop  offset="0.9504" style="stop-color:#D361A5"/>
			<stop  offset="0.9615" style="stop-color:#D66FAC"/>
			<stop  offset="0.971" style="stop-color:#DA80B5"/>
			<stop  offset="0.9794" style="stop-color:#E095C0"/>
			<stop  offset="0.987" style="stop-color:#E6AECF"/>
			<stop  offset="0.9937" style="stop-color:#EFCCE1"/>
			<stop  offset="1" style="stop-color:#FCEFF5"/>
		</linearGradient>
		<path class="st14" d="M147.3,210.9c8.1-7,18.1-12,28.6-14.1c4.8-1,10.5-1.2,13.9,2.3c2.7,2.8,3.2,7.2,2.1,10.9
			c-1.1,3.7-3.5,6.9-6,9.9c-11.1,13.2-24.7,24.1-40,32.1c-3.6,1.9-7.6,3.9-8.9,7.8c-1.5,4.4,1.6,9.4,6,11.1s9.3,0.5,13.3-1.9
			c4-2.4,7.1-5.9,10.3-9.3c5.8-6.2,12.3-12.4,20.6-14.4c8.3-2,18.6,2.1,20.4,10.4c1.5,6.6-2.6,13-6.9,18.3
			c-12.3,15-27.6,27-43.9,37.4c-10.4,6.6-34.3,26-47.4,22.6c-14.3-3.7-19.7-37.9-22.5-50c-4.8-20.6-7.4-41.6-10-62.6
			c-1.7-13.9-3-29.2,4.9-40.7c9.5-13.8,27.7-17,39.5-28.3c15.5-14.9,34.7-23.3,55.7-29.5c6.2-1.9,13.1-3.4,19.1-1
			c9.2,3.7,12.7,15.8,9.5,25.1s-11.4,16.1-20.2,20.8c-8.7,4.7-18.2,7.7-26.8,12.6"/>
		<g class="st1">
			<path class="st12" d="M149.1,212.7c5-4.2,10.6-7.8,16.7-10.2c5.3-2.2,13.1-5.2,18.9-3.4c16.8,5-8.9,28.4-14.5,33.3
				c-4.9,4.3-10,8.1-15.4,11.6c-4.8,3.1-10.2,5.3-14.8,8.6c-7.8,5.5-7.3,16.5,1.8,20.4c11.2,4.8,20.8-5.6,27.8-12.8
				c7.7-8,20-18.1,31.3-10.3c13.7,9.6-6.1,27.6-13.4,34.6c-9.7,9.3-20.5,17.2-31.8,24.5c-7,4.6-13.8,9.7-21,14.1
				c-6.5,4-17.2,11-25.3,8.1c-7.4-2.6-10.8-13.2-13-19.9c-2.6-7.7-4.3-15.7-6-23.6c-2.6-12.2-5.2-24.3-7-36.7
				c-2.1-14.1-4.5-28.6-5.1-42.9c-0.5-12.6,1.9-24.6,12-33c8.5-7.1,19.2-10.6,28.1-17.2c5.4-4,10-9,15.5-12.9
				c5.3-3.7,10.9-6.9,16.7-9.7c6.7-3.2,13.7-5.9,20.7-8.2c7.5-2.4,17.2-6.5,24.8-2.7c13.5,6.6,8.2,24.7-0.2,32.8
				c-10.6,10.3-25.8,13.9-38.5,20.8c-2.8,1.6-0.3,5.9,2.5,4.3c12.5-6.9,26.9-10.5,37.9-20.1c8.4-7.4,13.8-18.3,10.6-29.6
				c-3.6-12.4-14.9-16.4-26.8-13.8c-13.5,2.9-27.2,8.4-39.3,15c-6.1,3.3-11.9,7.2-17.2,11.6c-5.2,4.3-9.8,8.8-15.7,12.3
				c-10.1,6-21.6,10.5-28.8,20.3c-8.1,11-8,25.3-6.6,38.3c1.7,16.1,3.8,32.3,6.6,48.3c2,11.3,4.5,22.6,7.1,33.8
				c2.2,9.6,4.8,19.6,10,28.1c4.1,6.7,9.9,11,18,9.9c10.4-1.4,20.2-8,28.7-13.7c21.3-14.3,43.8-28.4,59.6-49.1
				c7.1-9.3,10-22.7-2.3-29.1c-10.8-5.7-22.1-0.5-30.5,6.9c-5.8,5.1-10.4,12.4-17.5,15.9c-3.8,1.9-9.1,2.6-12.4-0.7
				c-4.5-4.5-0.7-8.9,3.5-11.3c12.5-7.2,24.1-14.5,34.4-24.6c7.4-7.3,20.8-19.7,14-31.2c-6.1-10.6-22.4-4.8-30.9-1.1
				c-6.1,2.7-11.7,6.3-16.8,10.6C143.1,211.2,146.6,214.7,149.1,212.7L149.1,212.7z"/>
		</g>
	</g>
	<g class="st0">
		<linearGradient id="SVGID_8_" gradientUnits="userSpaceOnUse" x1="60.663" y1="184.7432" x2="163.121" y2="287.2012">
			<stop  offset="0" style="stop-color:#312061"/>
			<stop  offset="7.135946e-03" style="stop-color:#3A2468"/>
			<stop  offset="2.755998e-02" style="stop-color:#4C2D77"/>
			<stop  offset="5.166861e-02" style="stop-color:#5A3584"/>
			<stop  offset="8.149566e-02" style="stop-color:#643B8E"/>
			<stop  offset="0.1233" style="stop-color:#6A3E96"/>
			<stop  offset="0.2395" style="stop-color:#6C4099"/>
			<stop  offset="0.864" style="stop-color:#D04E9C"/>
			<stop  offset="0.9174" style="stop-color:#D0509D"/>
			<stop  offset="0.9367" style="stop-color:#D156A0"/>
			<stop  offset="0.9504" style="stop-color:#D361A5"/>
			<stop  offset="0.9615" style="stop-color:#D66FAC"/>
			<stop  offset="0.971" style="stop-color:#DA80B5"/>
			<stop  offset="0.9794" style="stop-color:#E095C0"/>
			<stop  offset="0.987" style="stop-color:#E6AECF"/>
			<stop  offset="0.9937" style="stop-color:#EFCCE1"/>
			<stop  offset="1" style="stop-color:#FCEFF5"/>
		</linearGradient>
		<path class="st15" d="M148.1,156c-8.4-8.8-22.5-9-34.4-6.4c-20.6,4.5-40.6,16.8-49,36.2c-6.3,14.5-5.4,31.1-3.2,46.7
			c3.7,25.9,11.2,51,21.6,74.9c0.8,1.8,1,3.4,1.5,5.2c0.5,2.4,1.9,4.6,3,6.8c2.1,4.5,4.4,9.1,6.5,13.6c1.3,2.9,4.6,6.9,8.3,6.7
			c5.7,0.9,11.5-2.3,14.9-7.1c3.3-4.7,4.5-10.7,4.7-16.4c0.4-11.4-2.6-22.6-4.6-33.8c-2-11.2-2.8-23.2,1.8-33.6
			c3.3-7.4,9-13.5,14-19.9c8.2-10.6,14.6-22.6,18.8-35.3C156,181,157.3,165.6,148.1,156z M126,193.5c0,4.2-1.9,8.2-3.9,11.9
			c-2.5,4.6-5.6,8.8-9.3,12.5c-3.5,3.5-7.4,6.5-11.4,9.4c-1.6,1.1-3.2,2.2-4.8,3.3c-1.2,0.8-2.4,1.8-3.8,2.5
			c-0.5,0.2-1.2,0.7-1.5,0.1c-0.3-0.5-0.4-1.4-0.6-2c-0.7-2.6-1.4-5.3-1.8-8c-0.3-1.6-0.4-3.3-0.6-4.9c-0.9-11.1,3.5-22.2,12.2-29.3
			C108.2,182.8,126.1,177.5,126,193.5z"/>
		<g class="st1">
			<path class="st12" d="M149.9,154.3c-10.3-10.1-25.8-9.8-39-6.6C97,151.1,83.5,158,73.5,168.4c-24.4,25.5-16.1,65.1-8,95.8
				c2.4,9.3,5.3,18.5,8.7,27.5c1.6,4.4,3.3,8.7,5.1,13c1.5,3.6,2.3,7.2,3.6,10.8c1.4,3.6,3.3,7,5,10.4c1.8,3.8,3.3,8.2,6,11.6
				c3.7,4.7,9.2,6,14.8,4.4c16-4.5,16.8-24.4,15.1-37.8c-2.3-17.9-10.3-38-1.8-55.4c4.1-8.4,11.1-15,16.5-22.6
				c5.7-8,10.3-16.8,13.8-25.9C157.9,185.5,161.4,167,149.9,154.3c-2.2-2.4-5.7,1.1-3.5,3.5c9.9,11,6.1,27.6,1.4,40.1
				c-5.5,14.6-14.3,26.2-23.7,38.4c-8.9,11.5-11.9,24-10.3,38.5c1.7,15.7,8.3,32,5,47.9c-1.5,7.2-6.7,15.1-14.9,14.7
				c-7.7-0.3-10.5-11.7-13.2-17.5c-3.1-6.5-5.1-13.3-7.9-20c-3.1-7.5-5.8-15.1-8.2-22.7c-5-15.7-8.7-31.8-10.8-48.1
				c-1.9-15.1-2.4-31.4,4.9-45.3c7-13.4,19.9-22.9,33.9-28.2c13.5-5.1,32.5-9,44,2.2C148.7,160.1,152.2,156.5,149.9,154.3z"/>
			<path class="st12" d="M123.5,193.5c-0.5,8.7-7.1,17.4-13.1,23.3c-3,2.9-6.3,5.5-9.7,7.9c-1.8,1.3-3.7,2.5-5.5,3.8
				c-0.9,0.6-3.6,2.3-3.4,2.4c0.6,0.6,1.2,1.2,1.7,1.7c-5-14.1-4.1-31.1,8.1-41.3C108,186.1,123.1,180.6,123.5,193.5
				c0.1,3.2,5.1,3.2,5,0c-0.3-11.4-9.5-15.1-19.6-11.7c-11.9,4-20.4,14.7-22.6,27c-1.4,7.8-0.2,15.8,1.9,23.3c2,6.9,7,2.6,11.2-0.3
				c12.7-8.8,28.2-21.4,29.1-38.2C128.7,190.3,123.7,190.3,123.5,193.5z"/>
		</g>
	</g>
	<g id="Calque_3">
		<linearGradient id="SVGID_9_" gradientUnits="userSpaceOnUse" x1="57.7771" y1="58.9512" x2="322.2375" y2="323.4117">
			<stop  offset="0" style="stop-color:#312061"/>
			<stop  offset="7.135945e-03" style="stop-color:#392768"/>
			<stop  offset="2.755998e-02" style="stop-color:#49367B"/>
			<stop  offset="5.166861e-02" style="stop-color:#56438B"/>
			<stop  offset="8.149566e-02" style="stop-color:#604C97"/>
			<stop  offset="0.1233" style="stop-color:#66519F"/>
			<stop  offset="0.2395" style="stop-color:#6853A3"/>
			<stop  offset="0.864" style="stop-color:#D16FAC"/>
			<stop  offset="0.9198" style="stop-color:#D171AD"/>
			<stop  offset="0.9399" style="stop-color:#D376AF"/>
			<stop  offset="0.9542" style="stop-color:#D57FB4"/>
			<stop  offset="0.9658" style="stop-color:#D98BBB"/>
			<stop  offset="0.9757" style="stop-color:#DE9CC5"/>
			<stop  offset="0.9845" style="stop-color:#E5B2D2"/>
			<stop  offset="0.9922" style="stop-color:#EECCE1"/>
			<stop  offset="0.9993" style="stop-color:#FAEBF3"/>
			<stop  offset="1" style="stop-color:#FCEFF5"/>
		</linearGradient>
		<path class="st16" d="M376.7,180.8C371,77.7,282.7-1.3,179.6,4.5S-2.4,98.5,3.3,201.6s94,182.1,197.1,176.3
			S382.5,283.9,376.7,180.8z M199.3,358.8c-92.6,5.2-171.8-65.7-176.9-158.3C17.3,108,88.1,28.7,180.7,23.6s171.8,65.7,176.9,158.3
			S291.9,353.6,199.3,358.8z"/>
	</g>
</g>
</svg>
