<?xml version="1.0" encoding="utf-8"?>
<!-- Generator: Adobe Illustrator 21.1.0, SVG Export Plug-In . SVG Version: 6.00 Build 0)  -->
<svg version="1.1" id="Calque_5" xmlns="http://www.w3.org/2000/svg" xmlns:xlink="http://www.w3.org/1999/xlink" x="0px" y="0px"
	 viewBox="0 0 380.7 382" style="enable-background:new 0 0 380.7 382;" xml:space="preserve">
<style type="text/css">
	.st0{fill:#302F2F;}
	.st1{fill:url(#SVGID_1_);}
</style>
<g>
	<path class="st0" d="M47,149.3c0-0.9,0.4-1.3,1.3-1.3h41.5c4.9,0,9,0.8,12.4,2.3c3.4,1.5,6.1,3.6,8.2,6.3c2.1,2.7,3.6,5.9,4.5,9.6
		c1,3.7,1.4,7.8,1.4,12.2c0,4.6-0.5,8.8-1.4,12.5c-1,3.7-2.5,6.9-4.5,9.6c-2.1,2.7-4.8,4.7-8.2,6.2c-3.4,1.4-7.5,2.1-12.4,2.1H67.2
		c-0.9,0-1.3,0.4-1.3,1.3v29.8c0,0.9-0.4,1.3-1.3,1.3H48.3c-0.9,0-1.3-0.4-1.3-1.3v-89.2V149.3z M67.2,164.9c-0.9,0-1.3,0.4-1.3,1.3
		v24.4c0,0.9,0.4,1.3,1.3,1.3H92c1.6,0,2.8-0.5,3.7-1.6c0.9-1.1,1.6-2.4,2-3.8c0.4-1.5,0.7-3,0.8-4.5c0.1-1.5,0.2-2.7,0.2-3.6
		c0-0.9-0.1-2.1-0.2-3.6c-0.1-1.5-0.4-3-0.8-4.5c-0.4-1.5-1.1-2.8-2-3.8c-0.9-1.1-2.1-1.6-3.7-1.6H67.2z"/>
	<path class="st0" d="M123.1,167.9c0-5.9,1.6-10.7,4.8-14.4c3.2-3.7,7.8-5.5,13.9-5.5h44.1c1.1,0,1.7,0.4,1.7,1.3v14.3
		c0,0.9-0.4,1.3-1.3,1.3h-43c-0.9,0-1.3,0.5-1.3,1.4V184c0,0.9,0.4,1.3,1.3,1.3h39.9c0.9,0,1.3,0.4,1.3,1.3v15
		c0,0.9-0.4,1.3-1.3,1.3h-39.9c-0.9,0-1.3,0.4-1.3,1.3V223c0,0.9,0.4,1.3,1.3,1.3h43c0.9,0,1.3,0.4,1.3,1.3v14.3
		c0,0.9-0.4,1.3-1.3,1.3h-50.3c-1.6,0-3.1-0.4-4.7-1.2c-1.6-0.8-2.9-1.9-4.2-3.2c-1.2-1.3-2.2-2.8-2.9-4.4c-0.7-1.6-1.1-3.2-1.1-4.9
		V167.9z"/>
	<path class="st0" d="M198.2,149.3c0-0.9,0.4-1.3,1.3-1.3H241c4.9,0,9,0.8,12.4,2.3c3.4,1.5,6.1,3.6,8.2,6.3
		c2.1,2.7,3.6,5.9,4.6,9.6c1,3.7,1.4,7.8,1.4,12.2c0,4.6-0.5,8.8-1.4,12.5c-1,3.7-2.5,6.9-4.6,9.6c-2.1,2.7-4.8,4.7-8.2,6.2
		c-3.4,1.4-7.5,2.1-12.4,2.1h-22.6c-0.9,0-1.3,0.4-1.3,1.3v29.8c0,0.9-0.4,1.3-1.3,1.3h-16.3c-0.9,0-1.3-0.4-1.3-1.3v-89.2V149.3z
		 M218.3,164.9c-0.9,0-1.3,0.4-1.3,1.3v24.4c0,0.9,0.4,1.3,1.3,1.3h24.8c1.6,0,2.8-0.5,3.7-1.6c0.9-1.1,1.6-2.4,2-3.8
		c0.4-1.5,0.7-3,0.8-4.5c0.1-1.5,0.2-2.7,0.2-3.6c0-0.9-0.1-2.1-0.2-3.6c-0.1-1.5-0.4-3-0.8-4.5c-0.4-1.5-1.1-2.8-2-3.8
		c-0.9-1.1-2.1-1.6-3.7-1.6H218.3z"/>
	<path class="st0" d="M298.7,202.5c-2.7,0-5.6-0.3-8.6-1c-3.1-0.7-5.9-2-8.4-4c-1.5-1.2-2.7-2.7-3.7-4.4c-1-1.7-1.8-3.5-2.5-5.5
		c-0.6-2-1.1-3.9-1.4-6c-0.3-2-0.5-4.1-0.5-6c0-0.9,0-1.7,0-2.5c0-0.8,0.1-1.6,0.3-2.3c0.6-7.5,3.4-13.4,8.5-17.5
		c1.5-1.2,3.3-2.4,5.5-3.5c2.2-1.1,4.3-1.7,6.4-1.7h43c0.9,0,1.3,0.4,1.3,1.3v14.3c0,0.9-0.4,1.3-1.3,1.3h-37.6
		c-1.2,0-2.3,0.5-3.3,1.6c-1,1.1-1.7,2.1-2.1,3.1c-0.4,0.9-0.7,1.7-0.8,2.6c-0.1,0.9-0.1,1.7-0.1,2.6c0,1.4,0.1,2.8,0.3,4.3
		c0.2,1.5,0.8,2.8,1.8,3.9c1,1,2.3,1.5,4,1.7c1.7,0.2,3.5,0.3,5.5,0.3h14.6c2.7,0,5.5,0.4,8.5,1.1c2.9,0.7,5.7,2.1,8.2,4.2
		c1.5,1.2,2.7,2.7,3.7,4.4c1,1.7,1.8,3.6,2.5,5.6c0.7,2,1.1,4.1,1.4,6.2c0.3,2.2,0.4,4.2,0.4,6.2c0,1,0,1.9,0,2.7
		c0,0.8-0.1,1.5-0.3,2.2c-0.7,7.9-3.5,14-8.3,18.2c-1.5,1.2-3.3,2.4-5.4,3.6c-2.1,1.2-4.1,1.8-6,1.8h-47.3c-0.9,0-1.3-0.4-1.3-1.3
		v-14.3c0-0.9,0.4-1.3,1.3-1.3h41.9c1.3,0,2.4-0.6,3.4-1.9c1-1.3,1.6-2.4,2.1-3.4c0.4-1,0.7-1.9,0.8-2.7c0.1-0.9,0.1-1.8,0.1-2.7
		c0-1.4-0.1-2.8-0.3-4.4c-0.2-1.5-0.8-2.9-1.8-4.1c-0.9-1-2.1-1.6-3.7-2c-1.6-0.4-3.5-0.6-5.7-0.6H298.7z"/>
</g>
<g id="Calque_3">
	<linearGradient id="SVGID_1_" gradientUnits="userSpaceOnUse" x1="57.7771" y1="58.9512" x2="322.2375" y2="323.4117">
		<stop  offset="0" style="stop-color:#312061"/>
		<stop  offset="7.135945e-03" style="stop-color:#392768"/>
		<stop  offset="2.755998e-02" style="stop-color:#49367B"/>
		<stop  offset="5.166861e-02" style="stop-color:#56438B"/>
		<stop  offset="8.149566e-02" style="stop-color:#604C97"/>
		<stop  offset="0.1233" style="stop-color:#66519F"/>
		<stop  offset="0.2395" style="stop-color:#6853A3"/>
		<stop  offset="0.864" style="stop-color:#D16FAC"/>
		<stop  offset="0.9198" style="stop-color:#D171AD"/>
		<stop  offset="0.9399" style="stop-color:#D376AF"/>
		<stop  offset="0.9542" style="stop-color:#D57FB4"/>
		<stop  offset="0.9658" style="stop-color:#D98BBB"/>
		<stop  offset="0.9757" style="stop-color:#DE9CC5"/>
		<stop  offset="0.9845" style="stop-color:#E5B2D2"/>
		<stop  offset="0.9922" style="stop-color:#EECCE1"/>
		<stop  offset="0.9993" style="stop-color:#FAEBF3"/>
		<stop  offset="1" style="stop-color:#FCEFF5"/>
	</linearGradient>
	<path class="st1" d="M376.7,180.8C371,77.7,282.7-1.3,179.6,4.5S-2.4,98.5,3.3,201.6s94,182.1,197.1,176.3S382.5,283.9,376.7,180.8
		z M199.3,358.8c-92.6,5.2-171.8-65.7-176.9-158.3C17.3,108,88.1,28.7,180.7,23.6s171.8,65.7,176.9,158.3S291.9,353.6,199.3,358.8z"
		/>
</g>
</svg>
